# xmcd
#
# Track frame offsets:
#	182
#	11457
#	23840
#	34215
#	45560
#	56165
#	66420
#	78407
#	91420
#	101695
#	112550
#	123057
#	133167
#	145107
#	156262
#	168395
#	177765
#	189907
#	202307
#	212982
#	223042
#	236607
#
# Disc length: 3297 seconds
#
# Revision: 4
# Processed by: cddbd v1.5.2PL0 Copyright (c) Steve Scherf et al.
# Submitted via: audiograbber 1.83.01
#
DISCID=360cdf16
DTITLE=Various Artist - Country 1
DYEAR=1993
DGENRE=Country
TTITLE0=Faron Young - Country girl
TTITLE1=Bobby Helms - Fraulein
TTITLE2=Charlie Walker - Pick me up on your way down
TTITLE3=Kitty Wells - It was't got who made honky tonk angels
TTITLE4=Hank Thompson - Wake up Irene
TTITLE5=Jimmy C Newman - A fallen Star
TTITLE6=Warner Mack - Is it wrong
TTITLE7=Pee Wee King - Slow poke
TTITLE8=Ferlin Husky - Gone
TTITLE9=Faron Young - I miss you alredy
TTITLE10=Hank Locklin - Let me be the one
TTITLE11=Mac Wiseman - Jimmy Brown the Newsboy
TTITLE12=Kitty Wells - Amigo's guitar
TTITLE13=Jean Shepard - Satisfied mind
TTITLE14=Pee Wee King - Silver and Gold
TTITLE15=Bobby Helms - Jingle bell rock
TTITLE16=Hank Thompson - The wild side of life
TTITLE17=Pee Wee King - Bimbo
TTITLE18=Marvin Rainwater - Gonna find me a bluebird
TTITLE19=Kitty Wells - I can't stop loving you
TTITLE20=Jimmy Dean - Big bad John
TTITLE21=Johny Russell - King of the road
EXTD=Diskotéka Mladého Svìta
EXTT0=
EXTT1=
EXTT2=
EXTT3=
EXTT4=
EXTT5=
EXTT6=
EXTT7=
EXTT8=
EXTT9=
EXTT10=
EXTT11=
EXTT12=
EXTT13=
EXTT14=
EXTT15=
EXTT16=
EXTT17=
EXTT18=
EXTT19=
EXTT20=
EXTT21=
PLAYORDER=
